<svg xmlns="http://www.w3.org/2000/svg" xmlns:xlink="http://www.w3.org/1999/xlink" width="500" zoomAndPan="magnify" viewBox="0 0 375 374.999991" height="500" preserveAspectRatio="xMidYMid meet" version="1.0"><path fill="#000000" d="M 60.433594 71.421875 C 61.355469 56.488281 65.230469 50.003906 76.351562 44.785156 C 88.316406 39.175781 107.183594 41.78125 129.382812 52.125 C 138.945312 56.578125 139.914062 56.667969 156.675781 54.695312 C 178.949219 52.066406 207.628906 52.074219 228.191406 54.71875 C 243.742188 56.71875 244.757812 56.617188 254.347656 52.148438 C 285.859375 37.46875 310.742188 38.433594 319.753906 54.675781 C 324.253906 62.777344 325.085938 83.820312 321.601562 101.175781 C 319.671875 110.792969 319.875 111.996094 324.527344 118.3125 C 357.296875 162.726562 333.6875 234.722656 277.535156 261.59375 C 273.242188 263.652344 269.617188 264.925781 266.671875 265.960938 C 257.605469 269.144531 254.859375 270.109375 258.1875 284.757812 C 259.792969 291.800781 261.722656 309.320312 262.484375 323.691406 C 263.859375 349.660156 263.839844 349.84375 258.886719 355.144531 C 252.140625 362.351562 242.425781 362.476562 235.847656 355.429688 C 231.554688 350.84375 231.140625 348.667969 231.140625 330.957031 C 231.140625 304.777344 228.019531 287.378906 220.648438 272.464844 C 211.886719 254.722656 218.378906 248.109375 238.425781 244.136719 C 266.285156 238.621094 288.050781 222.808594 300.175781 199.253906 C 311.707031 176.867188 313.445312 145.929688 292.59375 127.113281 C 286.664062 120.628906 286.253906 114.761719 290.484375 97.058594 C 292.066406 90.441406 293.394531 81.910156 293.433594 78.085938 C 293.488281 72.058594 292.894531 71.144531 288.867188 71.144531 C 286.320312 71.144531 276.582031 74.554688 267.238281 78.71875 L 252.320312 85.375 C 250.964844 85.980469 249.445312 86.210938 247.949219 86.050781 C 210.015625 82.050781 173.972656 81.988281 135.851562 86.070312 C 134.347656 86.230469 132.820312 86 131.464844 85.394531 L 116.554688 78.738281 C 107.210938 74.566406 97.476562 71.152344 94.925781 71.152344 C 89.039062 71.152344 88.949219 75.152344 94.316406 98.910156 C 97.597656 113.421875 99.800781 116.65625 90.324219 128.257812 C 76.113281 145.648438 72.566406 167.246094 80.183594 189.9375 C 89.785156 218.53125 113.300781 237.847656 146.363281 244.292969 C 166.292969 248.179688 171.503906 253.246094 163.890625 274.269531 C 157.902344 290.8125 154.113281 295.074219 145.40625 295.074219 C 133.691406 295.074219 126.351562 285.742188 130.390625 275.976562 C 132.167969 271.675781 131.636719 271.214844 120.671875 267.53125 C 87.171875 256.296875 61.554688 231.117188 49.835938 197.917969 C 40.785156 172.261719 44.769531 138.859375 59.289062 118.675781 C 64.238281 111.804688 64.316406 111.214844 62.007812 98.0625 C 60.703125 90.617188 59.992188 78.625 60.433594 71.421875 Z M 60.433594 71.421875 " fill-opacity="1" fill-rule="nonzero"/><path fill="#000000" d="M 48.738281 259.125 C 43.914062 252.464844 34.125 250.664062 26.890625 255.105469 C 19.648438 259.546875 17.691406 268.542969 22.519531 275.203125 C 26.085938 280.117188 30.347656 284.15625 33.964844 287.488281 C 34.632812 288.101562 35.285156 288.695312 35.917969 289.269531 C 38.945312 292.042969 41.625 294.484375 44.316406 297.394531 C 50.265625 303.816406 56.195312 312.464844 59.570312 327.980469 C 61.074219 334.886719 66.476562 338.609375 69.464844 340.238281 C 72.714844 342.003906 76.253906 343.039062 79.175781 343.714844 C 85.144531 345.101562 92.386719 345.816406 99.257812 346.238281 C 106.808594 346.699219 114.980469 346.847656 122.292969 346.890625 C 122.300781 354.886719 129.351562 361.375 138.050781 361.375 C 146.75 361.375 153.804688 354.886719 153.804688 346.886719 L 153.804688 332.394531 C 153.804688 324.394531 146.75 317.90625 138.050781 317.90625 C 136.566406 317.90625 134.957031 317.910156 133.253906 317.917969 C 124.007812 317.945312 111.957031 317.976562 101.34375 317.328125 C 96.222656 317.015625 92.015625 316.574219 88.929688 316.039062 C 84.179688 298.882812 76.503906 287.460938 68.308594 278.621094 C 64.683594 274.710938 60.941406 271.289062 57.890625 268.511719 C 57.320312 267.992188 56.773438 267.492188 56.253906 267.015625 C 52.734375 263.753906 50.433594 261.453125 48.738281 259.125 Z M 48.738281 259.125 " fill-opacity="1" fill-rule="nonzero"/></svg>